<svg width="388" height="208" viewBox="0 0 388 208" fill="none" xmlns="http://www.w3.org/2000/svg">
<path d="M262.977 53.2248C266.008 53.9847 268.368 55.3468 269.558 57.0228C269.558 57.0228 269.03 52.7464 272.724 51.0449C272.724 51.0449 269.379 52.4635 268.673 54.5435C267.072 53.8007 265.084 53.3402 262.977 53.2248Z" fill="#263238"/>
<path d="M246.549 42.5044C246.549 42.5044 252.68 45.0586 254.356 47.4132C254.356 47.4132 255.295 44.8881 259.734 44.131C258.683 44.1226 257.644 44.2516 256.707 44.5067C255.77 44.7619 254.963 45.1355 254.356 45.5953C252.439 44.1429 249.703 43.0592 246.549 42.5044Z" fill="#263238"/>
<path d="M240 53.6158C240 53.6158 245.021 53.1998 247.426 54.8388C247.426 54.8388 245.936 52.3927 247.426 50.7371C247.426 50.7371 245.44 51.4193 246.13 53.8779C246.13 53.8779 244.221 52.8212 240 53.6158Z" fill="#263238"/>
<path d="M388 159.078H0V159.182H388V159.078Z" fill="#EBEBEB"/>
<path d="M106.824 161.911H81.123V162.015H106.824V161.911Z" fill="#EBEBEB"/>
<path d="M164.427 165.722H132.805V165.826H164.427V165.722Z" fill="#EBEBEB"/>
<path d="M80.3471 164.42H40.709V164.524H80.3471V164.42Z" fill="#EBEBEB"/>
<path d="M349.122 162.61H276.846V162.714H349.122V162.61Z" fill="#EBEBEB"/>
<path d="M247.885 164.366H215.115V164.47H247.885V164.366Z" fill="#EBEBEB"/>
<path d="M183.912 140.525H34.0742C32.9004 140.524 31.7753 140.273 30.9461 139.828C30.1168 139.382 29.651 138.779 29.651 138.149V25.2346C29.6612 24.6089 30.1315 24.0107 30.9597 23.5698C31.7879 23.129 32.9071 22.8811 34.0742 22.88H183.912C185.087 22.88 186.214 23.1303 187.045 23.5757C187.876 24.0212 188.343 24.6254 188.343 25.2554V138.149C188.343 138.779 187.876 139.384 187.045 139.829C186.214 140.275 185.087 140.525 183.912 140.525ZM34.0742 22.9632C32.9518 22.9643 31.8761 23.2041 31.0832 23.6299C30.2903 24.0558 29.845 24.6329 29.845 25.2346V138.149C29.845 138.751 30.2903 139.328 31.0832 139.754C31.8761 140.18 32.9518 140.42 34.0742 140.421H183.912C185.035 140.419 186.11 140.179 186.904 139.753C187.697 139.328 188.145 138.751 188.149 138.149V25.2346C188.145 24.6328 187.697 24.0564 186.904 23.6309C186.11 23.2054 185.035 22.9654 183.912 22.9632H34.0742Z" fill="#EBEBEB"/>
<path d="M351.769 140.525H201.923C200.749 140.523 199.624 140.272 198.794 139.827C197.964 139.382 197.496 138.779 197.492 138.149V25.2346C197.504 24.6085 197.976 24.0103 198.806 23.5696C199.635 23.1288 200.755 22.8811 201.923 22.88H351.769C352.934 22.8822 354.052 23.1305 354.878 23.5713C355.705 24.012 356.174 24.6096 356.184 25.2346V138.149C356.185 138.461 356.072 138.769 355.85 139.057C355.629 139.345 355.304 139.607 354.894 139.827C354.484 140.048 353.997 140.223 353.461 140.343C352.924 140.462 352.349 140.524 351.769 140.525ZM201.923 22.9632C200.8 22.9654 199.725 23.2054 198.931 23.6309C198.138 24.0564 197.69 24.6328 197.686 25.2346V138.149C197.69 138.751 198.138 139.328 198.931 139.753C199.725 140.179 200.8 140.419 201.923 140.421H351.769C352.891 140.419 353.966 140.179 354.76 139.753C355.554 139.328 356.001 138.751 356.005 138.149V25.2346C356.001 24.6328 355.554 24.0564 354.76 23.6309C353.966 23.2054 352.891 22.9654 351.769 22.9632H201.923Z" fill="#EBEBEB"/>
<path d="M166.623 45.032H228.749C228.749 45.032 224.978 41.8621 218.529 43.447C218.529 43.447 217.319 40.119 213.152 40.0608C212.011 40.0154 210.87 40.1485 209.867 40.4438C208.864 40.7392 208.043 41.1842 207.502 41.7248C207.502 41.7248 202.66 37.6896 195.265 38.5549C193.207 38.7681 191.324 39.3198 189.877 40.1331C188.431 40.9465 187.493 41.9812 187.194 43.0934C187.194 43.0934 176.152 40.0608 166.623 45.032Z" fill="#FAFAFA"/>
<path d="M53.0784 91.3993H115.158C115.158 91.3993 111.395 88.2252 104.938 89.8102C104.938 89.8102 103.728 86.4822 99.5608 86.424C98.4203 86.3807 97.2808 86.5147 96.2789 86.8098C95.2769 87.1049 94.4549 87.5487 93.9115 88.088C93.9115 88.088 89.077 84.0486 81.6817 84.9139C79.6341 85.1302 77.7621 85.6818 76.3236 86.4924C74.8851 87.303 73.9511 88.3328 73.6501 89.44C73.6501 89.44 62.6232 86.424 53.0784 91.3993Z" fill="#FAFAFA"/>
<path d="M289.099 68.9769H351.218C351.218 68.9769 347.454 65.807 340.998 67.392C340.998 67.392 339.795 64.064 335.62 64.0057C334.48 63.9612 333.341 64.0946 332.34 64.39C331.338 64.6853 330.518 65.1298 329.978 65.6697C329.978 65.6697 325.136 61.6345 317.741 62.4998C315.683 62.7131 313.8 63.2647 312.354 64.0781C310.907 64.8914 309.969 65.9261 309.671 67.0384C309.671 67.0384 298.644 64.0057 289.099 68.9769Z" fill="#FAFAFA"/>
<path d="M285.268 49.1834C286.069 47.3703 283.977 45.5522 280.595 45.1226C277.213 44.693 273.822 45.8146 273.02 47.6277C272.219 49.4407 274.311 51.2588 277.693 51.6884C281.075 52.118 284.467 50.9964 285.268 49.1834Z" fill="#F0F0F0"/>
<path d="M47.142 68.9769H109.261C109.261 68.9769 105.536 65.807 99.0408 67.392C99.0408 67.392 97.8303 64.064 93.6632 64.0057C92.5234 63.9612 91.3841 64.0946 90.3828 64.39C89.3816 64.6853 88.5615 65.1298 88.0216 65.6697C88.0216 65.6697 83.1794 61.6345 75.7841 62.4998C73.7261 62.7131 71.843 63.2647 70.3967 64.0781C68.9504 64.8914 68.0126 65.9261 67.7137 67.0384C67.7137 67.0384 56.6868 64.0057 47.142 68.9769Z" fill="#FAFAFA"/>
<path d="M156.695 37.1896H90.8286V153.335H156.695V37.1896Z" fill="#E6E6E6"/>
<path d="M144.722 37.1896H90.8286V153.335H144.722V37.1896Z" fill="#F0F0F0"/>
<path d="M157.471 37.1896H89.4084V39.0827H157.471V37.1896Z" fill="#E0E0E0"/>
<path d="M157.471 33.3964H89.4084V35.2895H157.471V33.3964Z" fill="#E0E0E0"/>
<path d="M156.044 35.2896H90.8286V37.1826H156.044V35.2896Z" fill="#F0F0F0"/>
<path d="M106.061 44.0258H95.9424V53.1687H106.061V44.0258Z" fill="#E6E6E6"/>
<path d="M106.061 44.0258H96.8348V53.1687H106.061V44.0258Z" fill="#F5F5F5"/>
<path d="M121.395 44.0258H111.276V53.1687H121.395V44.0258Z" fill="#E6E6E6"/>
<path d="M121.395 44.0258H112.169V53.1687H121.395V44.0258Z" fill="#F5F5F5"/>
<path d="M136.721 44.0258H126.602V53.1687H136.721V44.0258Z" fill="#E6E6E6"/>
<path d="M136.721 44.0258H127.495V53.1687H136.721V44.0258Z" fill="#F5F5F5"/>
<path d="M106.061 57.4949H95.9424V66.6378H106.061V57.4949Z" fill="#E6E6E6"/>
<path d="M106.061 57.4949H96.8348V66.6378H106.061V57.4949Z" fill="#F5F5F5"/>
<path d="M121.395 57.4949H111.276V66.6378H121.395V57.4949Z" fill="#E6E6E6"/>
<path d="M121.395 57.4949H112.169V66.6378H121.395V57.4949Z" fill="#F5F5F5"/>
<path d="M136.721 57.4949H126.602V66.6378H136.721V57.4949Z" fill="#E6E6E6"/>
<path d="M136.721 57.4949H127.495V66.6378H136.721V57.4949Z" fill="#F5F5F5"/>
<path d="M106.061 82.1542H95.9424V91.2971H106.061V82.1542Z" fill="#E6E6E6"/>
<path d="M106.061 82.1542H96.8348V91.2971H106.061V82.1542Z" fill="#F5F5F5"/>
<path d="M121.395 82.1542H111.276V91.2971H121.395V82.1542Z" fill="#E6E6E6"/>
<path d="M121.395 82.1542H112.169V91.2971H121.395V82.1542Z" fill="#F5F5F5"/>
<path d="M136.721 82.1542H126.602V91.2971H136.721V82.1542Z" fill="#E6E6E6"/>
<path d="M136.721 82.1542H127.495V91.2971H136.721V82.1542Z" fill="#F5F5F5"/>
<path d="M106.061 95.6233H95.9424V104.766H106.061V95.6233Z" fill="#E6E6E6"/>
<path d="M106.061 95.6233H96.8348V104.766H106.061V95.6233Z" fill="#F5F5F5"/>
<path d="M121.395 95.6233H111.276V104.766H121.395V95.6233Z" fill="#E6E6E6"/>
<path d="M121.395 95.6233H112.169V104.766H121.395V95.6233Z" fill="#F5F5F5"/>
<path d="M136.721 95.6233H126.602V104.766H136.721V95.6233Z" fill="#E6E6E6"/>
<path d="M136.721 95.6233H127.495V104.766H136.721V95.6233Z" fill="#F5F5F5"/>
<path d="M106.061 123.031H95.9424V132.174H106.061V123.031Z" fill="#E6E6E6"/>
<path d="M106.061 123.031H96.8348V132.174H106.061V123.031Z" fill="#F5F5F5"/>
<path d="M121.395 123.031H111.276V132.174H121.395V123.031Z" fill="#E6E6E6"/>
<path d="M121.395 123.031H112.169V132.174H121.395V123.031Z" fill="#F5F5F5"/>
<path d="M136.721 123.031H126.602V132.174H136.721V123.031Z" fill="#E6E6E6"/>
<path d="M136.721 123.031H127.495V132.174H136.721V123.031Z" fill="#F5F5F5"/>
<path d="M106.061 136.5H95.9424V145.643H106.061V136.5Z" fill="#E6E6E6"/>
<path d="M106.061 136.5H96.8348V145.643H106.061V136.5Z" fill="#F5F5F5"/>
<path d="M121.395 136.5H111.276V145.643H121.395V136.5Z" fill="#E6E6E6"/>
<path d="M121.395 136.5H112.169V145.643H121.395V136.5Z" fill="#F5F5F5"/>
<path d="M136.721 136.5H126.602V145.643H136.721V136.5Z" fill="#E6E6E6"/>
<path d="M136.721 136.5H127.495V145.643H136.721V136.5Z" fill="#F5F5F5"/>
<path d="M156.695 73.0674H90.8286V73.9158H156.695V73.0674Z" fill="#E0E0E0"/>
<path d="M156.695 115.227H90.8286V116.076H156.695V115.227Z" fill="#E0E0E0"/>
<path d="M79.7085 71.9666H34.1495V172.133H79.7085V71.9666Z" fill="#E0E0E0"/>
<path d="M66.7338 71.9666H34.1495V172.133H66.7338V71.9666Z" fill="#F0F0F0"/>
<path d="M49.6307 80.198H37.5018V85.5197H49.6307V80.198Z" fill="#E6E6E6"/>
<path d="M49.6307 80.198H38.3088V85.5197H49.6307V80.198Z" fill="#F5F5F5"/>
<path d="M63.6607 80.198H51.5319V85.5197H63.6607V80.198Z" fill="#E6E6E6"/>
<path d="M63.6531 80.198H52.339V85.5197H63.6531V80.198Z" fill="#F5F5F5"/>
<path d="M49.6307 90.2103H37.5018V95.532H49.6307V90.2103Z" fill="#E6E6E6"/>
<path d="M49.6307 90.2103H38.3088V95.532H49.6307V90.2103Z" fill="#F5F5F5"/>
<path d="M63.6607 90.2103H51.5319V95.532H63.6607V90.2103Z" fill="#E6E6E6"/>
<path d="M63.6531 90.2103H52.339V95.532H63.6531V90.2103Z" fill="#F5F5F5"/>
<path d="M49.6307 103.006H37.5018V108.328H49.6307V103.006Z" fill="#E6E6E6"/>
<path d="M49.6307 103.006H38.3088V108.328H49.6307V103.006Z" fill="#F5F5F5"/>
<path d="M63.6607 103.006H51.5319V108.328H63.6607V103.006Z" fill="#E6E6E6"/>
<path d="M63.6531 103.006H52.339V108.328H63.6531V103.006Z" fill="#F5F5F5"/>
<path d="M49.6307 110.354H37.5018V115.676H49.6307V110.354Z" fill="#E6E6E6"/>
<path d="M49.6307 110.354H38.3088V115.676H49.6307V110.354Z" fill="#F5F5F5"/>
<path d="M63.6607 110.354H51.5319V115.676H63.6607V110.354Z" fill="#E6E6E6"/>
<path d="M63.6531 110.354H52.339V115.676H63.6531V110.354Z" fill="#F5F5F5"/>
<path d="M49.6307 122.435H37.5018V127.757H49.6307V122.435Z" fill="#E6E6E6"/>
<path d="M49.6307 122.435H38.3088V127.757H49.6307V122.435Z" fill="#F5F5F5"/>
<path d="M63.6607 122.435H51.5319V127.757H63.6607V122.435Z" fill="#E6E6E6"/>
<path d="M63.6531 122.435H52.339V127.757H63.6531V122.435Z" fill="#F5F5F5"/>
<path d="M49.6307 129.783H37.5018V135.105H49.6307V129.783Z" fill="#E6E6E6"/>
<path d="M49.6307 129.783H38.3088V135.105H49.6307V129.783Z" fill="#F5F5F5"/>
<path d="M63.6607 129.783H51.5319V135.105H63.6607V129.783Z" fill="#E6E6E6"/>
<path d="M63.6531 129.783H52.339V135.105H63.6531V129.783Z" fill="#F5F5F5"/>
<path d="M49.6307 142.93H37.5018V148.251H49.6307V142.93Z" fill="#E6E6E6"/>
<path d="M49.6307 142.93H38.3088V148.251H49.6307V142.93Z" fill="#F5F5F5"/>
<path d="M63.6607 142.93H51.5319V148.251H63.6607V142.93Z" fill="#E6E6E6"/>
<path d="M63.6531 142.93H52.339V148.251H63.6531V142.93Z" fill="#F5F5F5"/>
<path d="M49.6307 152.634H37.5018V157.955H49.6307V152.634Z" fill="#E6E6E6"/>
<path d="M49.6307 152.634H38.3088V157.955H49.6307V152.634Z" fill="#F5F5F5"/>
<path d="M63.6607 152.634H51.5319V157.955H63.6607V152.634Z" fill="#E6E6E6"/>
<path d="M63.6531 152.634H52.339V157.955H63.6531V152.634Z" fill="#F5F5F5"/>
<path opacity="0.05" d="M79.7085 98.8065H34.1495V99.725H79.7085V98.8065Z" fill="black"/>
<path opacity="0.05" d="M79.7085 118.593H34.1495V119.511H79.7085V118.593Z" fill="black"/>
<path opacity="0.05" d="M79.7085 138.555H34.1495V139.466H79.7085V138.555Z" fill="black"/>
<path d="M79.7007 69.0007H32V72.198H79.7007V69.0007Z" fill="#E0E0E0"/>
<path opacity="0.05" d="M79.7085 69.0007H68.8057V72.198H79.7085V69.0007Z" fill="black"/>
<path d="M237.415 19.7941H183.917V145.419H237.415V19.7941Z" fill="#E6E6E6"/>
<path d="M217.611 19.7941H164.114V145.419H217.611V19.7941Z" fill="#F0F0F0"/>
<path d="M212.948 28.3201H168.786V34.7216H212.948V28.3201Z" fill="#E6E6E6"/>
<path d="M212.94 28.3201H170.493V34.7216H212.94V28.3201Z" fill="#F5F5F5"/>
<path d="M212.948 39.0968H168.786V45.4983H212.948V39.0968Z" fill="#E6E6E6"/>
<path d="M212.94 39.0968H170.493V45.4983H212.94V39.0968Z" fill="#F5F5F5"/>
<path d="M212.948 50.287H168.786V56.6885H212.948V50.287Z" fill="#E6E6E6"/>
<path d="M212.94 50.287H170.493V56.6885H212.94V50.287Z" fill="#F5F5F5"/>
<path d="M212.948 61.4844H168.786V67.8859H212.948V61.4844Z" fill="#E6E6E6"/>
<path d="M212.94 61.4844H170.493V67.8859H212.94V61.4844Z" fill="#F5F5F5"/>
<path d="M212.948 72.6748H168.786V79.0763H212.948V72.6748Z" fill="#E6E6E6"/>
<path d="M212.94 72.6748H170.493V79.0763H212.94V72.6748Z" fill="#F5F5F5"/>
<path d="M212.948 83.8721H168.786V90.2736H212.948V83.8721Z" fill="#E6E6E6"/>
<path d="M212.94 83.8721H170.493V90.2736H212.94V83.8721Z" fill="#F5F5F5"/>
<path d="M212.948 96.2051H168.786V102.607H212.948V96.2051Z" fill="#E6E6E6"/>
<path d="M212.94 96.2051H170.493V102.607H212.94V96.2051Z" fill="#F5F5F5"/>
<path d="M212.948 108.545H168.786V114.947H212.948V108.545Z" fill="#E6E6E6"/>
<path d="M212.94 108.545H170.493V114.947H212.94V108.545Z" fill="#F5F5F5"/>
<path d="M212.948 120.885H168.786V127.287H212.948V120.885Z" fill="#E6E6E6"/>
<path d="M212.94 120.885H170.493V127.287H212.94V120.885Z" fill="#F5F5F5"/>
<path d="M212.948 133.219H168.786V139.62H212.948V133.219Z" fill="#E6E6E6"/>
<path d="M212.94 133.219H170.493V139.62H212.94V133.219Z" fill="#F5F5F5"/>
<path d="M238.804 18.5321H162.601V21.5961H238.804V18.5321Z" fill="#E0E0E0"/>
<path d="M238.804 13H162.601V16.064H238.804V13Z" fill="#E0E0E0"/>
<path d="M236.274 15.4611H164.114V18.5251H236.274V15.4611Z" fill="#F0F0F0"/>
<path d="M237.415 28.3201H222.508V34.7216H237.415V28.3201Z" fill="#E0E0E0"/>
<path d="M237.415 38.8513H222.508V45.2528H237.415V38.8513Z" fill="#E0E0E0"/>
<path d="M237.415 49.3896H222.508V55.7911H237.415V49.3896Z" fill="#E0E0E0"/>
<path d="M237.415 61.4774H222.508V67.8789H237.415V61.4774Z" fill="#E0E0E0"/>
<path d="M237.415 72.6748H222.508V79.0763H237.415V72.6748Z" fill="#E0E0E0"/>
<path d="M237.415 83.8721H222.508V90.2736H237.415V83.8721Z" fill="#E0E0E0"/>
<path d="M237.415 96.2051H222.508V102.607H237.415V96.2051Z" fill="#E0E0E0"/>
<path d="M237.415 108.545H222.508V114.947H237.415V108.545Z" fill="#E0E0E0"/>
<path d="M237.415 120.879H222.508V127.28H237.415V120.879Z" fill="#E0E0E0"/>
<path d="M237.415 133.219H222.508V139.62H237.415V133.219Z" fill="#E0E0E0"/>
<path d="M358.502 116.153H354.211V122.218H358.502V116.153Z" fill="#E0E0E0"/>
<path d="M358.502 126.081H354.211V132.146H358.502V126.081Z" fill="#E0E0E0"/>
<path d="M358.502 135.722H354.211V141.787H358.502V135.722Z" fill="#E0E0E0"/>
<path d="M358.502 145.924H354.211V151.989H358.502V145.924Z" fill="#E0E0E0"/>
<path d="M358.502 155.845H354.211V161.91H358.502V155.845Z" fill="#E0E0E0"/>
<path d="M358.502 110.06H313.362V172.09H358.502V110.06Z" fill="#E6E6E6"/>
<path d="M350.882 110.06H313.37V172.09H350.882V110.06Z" fill="#F0F0F0"/>
<path d="M347.25 116.153H316.745V122.218H347.25V116.153Z" fill="#EBEBEB"/>
<path d="M347.25 126.081H316.745V132.146H347.25V126.081Z" fill="#EBEBEB"/>
<path d="M347.25 136.002H316.745V142.067H347.25V136.002Z" fill="#EBEBEB"/>
<path d="M347.25 145.924H316.745V151.989H347.25V145.924Z" fill="#EBEBEB"/>
<path d="M347.25 155.845H316.745V161.91H347.25V155.845Z" fill="#EBEBEB"/>
<path d="M347.242 116.153H317.863V122.218H347.242V116.153Z" fill="#F5F5F5"/>
<path d="M347.242 126.081H317.863V132.146H347.242V126.081Z" fill="#F5F5F5"/>
<path d="M347.242 136.002H317.863V142.067H347.242V136.002Z" fill="#F5F5F5"/>
<path d="M347.242 145.924H317.863V151.989H347.242V145.924Z" fill="#F5F5F5"/>
<path d="M347.242 155.845H317.863V161.91H347.242V155.845Z" fill="#F5F5F5"/>
<path d="M170.754 61.436H93.9067V178.734H170.754V61.436Z" fill="#A2A8AC"/>
<path opacity="0.4" d="M156.786 61.436H93.9067V178.734H156.786V61.436Z" fill="white"/>
<path d="M171.662 61.436H92.2538V63.3479H171.662V61.436Z" fill="#A2A8AC"/>
<path d="M171.662 57.6062H92.2538V59.5241H171.662V57.6062Z" fill="#A2A8AC"/>
<path d="M169.994 59.5242H93.9067V61.436H169.994V59.5242Z" fill="#F0F0F0"/>
<path d="M111.685 68.3431H99.8741V77.5808H111.685V68.3431Z" fill="#A2A8AC"/>
<path opacity="0.2" d="M111.685 68.3431H100.914V77.5808H111.685V68.3431Z" fill="white"/>
<path d="M129.572 68.3431H117.761V77.5808H129.572V68.3431Z" fill="#A2A8AC"/>
<path opacity="0.2" d="M129.572 68.3431H118.801V77.5808H129.572V68.3431Z" fill="white"/>
<path d="M147.451 68.3431H135.64V77.5808H147.451V68.3431Z" fill="#A2A8AC"/>
<path opacity="0.2" d="M147.451 68.3431H136.68V77.5808H147.451V68.3431Z" fill="white"/>
<path d="M111.685 81.9447H99.8741V91.1824H111.685V81.9447Z" fill="#A2A8AC"/>
<path opacity="0.2" d="M111.685 81.9447H100.914V91.1824H111.685V81.9447Z" fill="white"/>
<path d="M129.572 81.9447H117.761V91.1824H129.572V81.9447Z" fill="#A2A8AC"/>
<path opacity="0.2" d="M129.572 81.9447H118.801V91.1824H129.572V81.9447Z" fill="white"/>
<path d="M147.451 81.9447H135.64V91.1824H147.451V81.9447Z" fill="#A2A8AC"/>
<path opacity="0.2" d="M147.451 81.9447H136.68V91.1824H147.451V81.9447Z" fill="white"/>
<path d="M111.685 106.848H99.8741V116.085H111.685V106.848Z" fill="#A2A8AC"/>
<path opacity="0.2" d="M111.685 106.848H100.914V116.085H111.685V106.848Z" fill="white"/>
<path d="M129.572 106.848H117.761V116.085H129.572V106.848Z" fill="#A2A8AC"/>
<path opacity="0.2" d="M129.572 106.848H118.801V116.085H129.572V106.848Z" fill="white"/>
<path d="M147.451 106.848H135.64V116.085H147.451V106.848Z" fill="#A2A8AC"/>
<path opacity="0.2" d="M147.451 106.848H136.68V116.085H147.451V106.848Z" fill="white"/>
<path d="M111.685 120.449H99.8741V129.687H111.685V120.449Z" fill="#A2A8AC"/>
<path opacity="0.2" d="M111.685 120.449H100.914V129.687H111.685V120.449Z" fill="white"/>
<path d="M129.572 120.449H117.761V129.687H129.572V120.449Z" fill="#A2A8AC"/>
<path opacity="0.2" d="M129.572 120.449H118.801V129.687H129.572V120.449Z" fill="white"/>
<path d="M147.451 120.449H135.64V129.687H147.451V120.449Z" fill="#A2A8AC"/>
<path opacity="0.2" d="M147.451 120.449H136.68V129.687H147.451V120.449Z" fill="white"/>
<path d="M111.685 148.132H99.8741V157.37H111.685V148.132Z" fill="#A2A8AC"/>
<path opacity="0.2" d="M111.685 148.132H100.914V157.37H111.685V148.132Z" fill="white"/>
<path d="M129.572 148.132H117.761V157.37H129.572V148.132Z" fill="#A2A8AC"/>
<path opacity="0.2" d="M129.572 148.132H118.801V157.37H129.572V148.132Z" fill="white"/>
<path d="M147.451 148.132H135.64V157.37H147.451V148.132Z" fill="#A2A8AC"/>
<path opacity="0.2" d="M147.451 148.132H136.68V157.37H147.451V148.132Z" fill="white"/>
<path d="M111.685 161.733H99.8741V170.971H111.685V161.733Z" fill="#A2A8AC"/>
<path opacity="0.2" d="M111.685 161.733H100.914V170.971H111.685V161.733Z" fill="white"/>
<path d="M129.572 161.733H117.761V170.971H129.572V161.733Z" fill="#A2A8AC"/>
<path opacity="0.2" d="M129.572 161.733H118.801V170.971H129.572V161.733Z" fill="white"/>
<path d="M147.451 161.733H135.64V170.971H147.451V161.733Z" fill="#A2A8AC"/>
<path opacity="0.2" d="M147.451 161.733H136.68V170.971H147.451V161.733Z" fill="white"/>
<path opacity="0.2" d="M170.754 97.6765H93.9067V98.5323H170.754V97.6765Z" fill="white"/>
<path opacity="0.2" d="M170.754 140.248H93.9067V141.103H170.754V140.248Z" fill="white"/>
<path d="M276.562 77.5807H223.413V178.734H276.562V77.5807Z" fill="#A2A8AC"/>
<path opacity="0.4" d="M263.843 77.5807H223.413V178.734H263.843V77.5807Z" fill="white"/>
<path d="M241.479 85.8898H227.332V91.2612H241.479V85.8898Z" fill="#A2A8AC"/>
<path opacity="0.2" d="M241.479 85.8898H228.271V91.2612H241.479V85.8898Z" fill="white"/>
<path d="M257.844 85.8898H243.698V91.2612H257.844V85.8898Z" fill="#A2A8AC"/>
<path opacity="0.2" d="M257.844 85.8898H244.637V91.2612H257.844V85.8898Z" fill="white"/>
<path d="M241.479 96.0015H227.332V101.373H241.479V96.0015Z" fill="#A2A8AC"/>
<path opacity="0.2" d="M241.479 96.0015H228.271V101.373H241.479V96.0015Z" fill="white"/>
<path d="M257.844 96.0015H243.698V101.373H257.844V96.0015Z" fill="#A2A8AC"/>
<path opacity="0.2" d="M257.844 96.0015H244.637V101.373H257.844V96.0015Z" fill="white"/>
<path d="M241.479 108.923H227.332V114.295H241.479V108.923Z" fill="#A2A8AC"/>
<path opacity="0.2" d="M241.479 108.923H228.271V114.295H241.479V108.923Z" fill="white"/>
<path d="M257.844 108.923H243.698V114.295H257.844V108.923Z" fill="#A2A8AC"/>
<path opacity="0.2" d="M257.844 108.923H244.637V114.295H257.844V108.923Z" fill="white"/>
<path d="M241.479 116.346H227.332V121.718H241.479V116.346Z" fill="#A2A8AC"/>
<path opacity="0.2" d="M241.479 116.346H228.271V121.718H241.479V116.346Z" fill="white"/>
<path d="M257.844 116.346H243.698V121.718H257.844V116.346Z" fill="#A2A8AC"/>
<path opacity="0.2" d="M257.844 116.346H244.637V121.718H257.844V116.346Z" fill="white"/>
<path d="M241.479 128.546H227.332V133.917H241.479V128.546Z" fill="#A2A8AC"/>
<path opacity="0.2" d="M241.479 128.546H228.271V133.917H241.479V128.546Z" fill="white"/>
<path d="M257.844 128.546H243.698V133.917H257.844V128.546Z" fill="#A2A8AC"/>
<path opacity="0.2" d="M257.844 128.546H244.637V133.917H257.844V128.546Z" fill="white"/>
<path d="M241.479 135.969H227.332V141.34H241.479V135.969Z" fill="#A2A8AC"/>
<path opacity="0.2" d="M241.479 135.969H228.271V141.34H241.479V135.969Z" fill="white"/>
<path d="M257.844 135.969H243.698V141.34H257.844V135.969Z" fill="#A2A8AC"/>
<path opacity="0.2" d="M257.844 135.969H244.637V141.34H257.844V135.969Z" fill="white"/>
<path d="M241.479 149.243H227.332V154.614H241.479V149.243Z" fill="#A2A8AC"/>
<path opacity="0.2" d="M241.479 149.243H228.271V154.614H241.479V149.243Z" fill="white"/>
<path d="M257.844 149.243H243.698V154.614H257.844V149.243Z" fill="#A2A8AC"/>
<path opacity="0.2" d="M257.844 149.243H244.637V154.614H257.844V149.243Z" fill="white"/>
<path d="M241.479 159.051H227.332V164.422H241.479V159.051Z" fill="#A2A8AC"/>
<path opacity="0.2" d="M241.479 159.051H228.271V164.422H241.479V159.051Z" fill="white"/>
<path d="M257.844 159.051H243.698V164.422H257.844V159.051Z" fill="#A2A8AC"/>
<path opacity="0.2" d="M257.844 159.051H244.637V164.422H257.844V159.051Z" fill="white"/>
<path d="M276.569 74.5885H220.915V77.8174H276.569V74.5885Z" fill="#A2A8AC"/>
<path opacity="0.2" d="M276.569 74.5885H263.851V77.8174H276.569V74.5885Z" fill="black"/>
<path d="M223.413 122.246H218.408V128.37H223.413V122.246Z" fill="#E0E0E0"/>
<path d="M223.413 132.266H218.408V138.39H223.413V132.266Z" fill="#E0E0E0"/>
<path d="M223.413 142.008H218.408V148.132H223.413V142.008Z" fill="#E0E0E0"/>
<path d="M223.413 152.308H218.408V158.432H223.413V152.308Z" fill="#E0E0E0"/>
<path d="M223.413 162.328H218.408V168.452H223.413V162.328Z" fill="#E0E0E0"/>
<path d="M223.413 116.091H170.754V178.734H223.413V116.091Z" fill="#A2A8AC"/>
<path opacity="0.3" d="M214.52 116.085H170.754V178.734H214.52V116.085Z" fill="white"/>
<path d="M210.276 122.246H174.688V128.37H210.276V122.246Z" fill="#A2A8AC"/>
<path d="M210.276 132.266H174.688V138.39H210.276V132.266Z" fill="#A2A8AC"/>
<path d="M210.276 142.287H174.688V148.411H210.276V142.287Z" fill="#A2A8AC"/>
<path d="M210.276 152.308H174.688V158.432H210.276V152.308Z" fill="#A2A8AC"/>
<path d="M210.276 162.328H174.688V168.452H210.276V162.328Z" fill="#A2A8AC"/>
<g opacity="0.1">
<path d="M210.276 122.246H176V128.37H210.276V122.246Z" fill="white"/>
<path d="M210.276 132.266H176V138.39H210.276V132.266Z" fill="white"/>
<path d="M210.276 142.287H176V148.411H210.276V142.287Z" fill="white"/>
<path d="M210.276 152.308H176V158.432H210.276V152.308Z" fill="white"/>
<path d="M210.276 162.328H176V168.452H210.276V162.328Z" fill="white"/>
</g>
<path d="M62.3313 135.331H27V178.734H83.3842V135.331V116.085L62.3313 135.331Z" fill="#A2A8AC"/>
<path d="M93.9067 116.085H83.3842V178.734H93.9067V116.085Z" fill="#A2A8AC"/>
<path opacity="0.7" d="M93.9067 116.085H83.3842V178.734H93.9067V116.085Z" fill="white"/>
<path opacity="0.7" d="M170.754 63.3479H156.778V178.734H170.754V63.3479Z" fill="white"/>
<path opacity="0.6" d="M223.413 116.085H214.52V178.734H223.413V116.085Z" fill="white"/>
<path opacity="0.7" d="M276.569 77.8174H263.851V178.734H276.569V77.8174Z" fill="white"/>
<path opacity="0.5" d="M284.011 60.4771H282.009V66.941H284.011V60.4771Z" fill="white"/>
<path opacity="0.5" d="M284.011 71.3534H282.009V77.8173H284.011V71.3534Z" fill="white"/>
<path opacity="0.5" d="M284.011 82.6608H282.009V89.1247H284.011V82.6608Z" fill="white"/>
<path opacity="0.5" d="M284.011 93.9681H282.009V100.432H284.011V93.9681Z" fill="white"/>
<path opacity="0.5" d="M284.011 105.269H282.009V111.733H284.011V105.269Z" fill="white"/>
<path opacity="0.5" d="M284.011 116.577H282.009V123.041H284.011V116.577Z" fill="white"/>
<path opacity="0.5" d="M284.011 129.037H282.009V135.501H284.011V129.037Z" fill="white"/>
<path opacity="0.5" d="M284.011 141.498H282.009V147.962H284.011V141.498Z" fill="white"/>
<path opacity="0.5" d="M284.011 153.952H282.009V160.416H284.011V153.952Z" fill="white"/>
<path opacity="0.5" d="M284.011 166.413H282.009V172.877H284.011V166.413Z" fill="white"/>
<path d="M362.085 51.8646H299.671V178.734H362.085V51.8646Z" fill="#A2A8AC"/>
<path d="M338.975 51.8646H276.562V178.734H338.975V51.8646Z" fill="#A2A8AC"/>
<path opacity="0.7" d="M362.085 53.6854H338.983V178.734H362.085V53.6854Z" fill="white"/>
<path d="M362.085 60.4771H344.694V66.941H362.085V60.4771Z" fill="#A2A8AC"/>
<path d="M362.085 71.1107H344.694V77.5747H362.085V71.1107Z" fill="#A2A8AC"/>
<path d="M362.085 81.7505H344.694V88.2144H362.085V81.7505Z" fill="#A2A8AC"/>
<path d="M362.085 93.962H344.694V100.426H362.085V93.962Z" fill="#A2A8AC"/>
<path d="M362.085 105.269H344.694V111.733H362.085V105.269Z" fill="#A2A8AC"/>
<path d="M362.085 116.577H344.694V123.041H362.085V116.577Z" fill="#A2A8AC"/>
<path d="M362.085 129.031H344.694V135.495H362.085V129.031Z" fill="#A2A8AC"/>
<path d="M362.085 141.492H344.694V147.956H362.085V141.492Z" fill="#A2A8AC"/>
<path d="M362.085 153.952H344.694V160.416H362.085V153.952Z" fill="#A2A8AC"/>
<path d="M362.085 166.413H344.694V172.877H362.085V166.413Z" fill="#A2A8AC"/>
<path opacity="0.3" d="M362.085 60.4771H344.694V66.941H362.085V60.4771Z" fill="white"/>
<path opacity="0.3" d="M362.085 71.1107H344.694V77.5747H362.085V71.1107Z" fill="white"/>
<path opacity="0.3" d="M362.085 81.7505H344.694V88.2144H362.085V81.7505Z" fill="white"/>
<path opacity="0.3" d="M362.085 93.962H344.694V100.426H362.085V93.962Z" fill="white"/>
<path opacity="0.3" d="M362.085 105.269H344.694V111.733H362.085V105.269Z" fill="white"/>
<path opacity="0.3" d="M362.085 116.577H344.694V123.041H362.085V116.577Z" fill="white"/>
<path opacity="0.3" d="M362.085 129.031H344.694V135.495H362.085V129.031Z" fill="white"/>
<path opacity="0.3" d="M362.085 141.492H344.694V147.956H362.085V141.492Z" fill="white"/>
<path opacity="0.3" d="M362.085 153.952H344.694V160.416H362.085V153.952Z" fill="white"/>
<path opacity="0.3" d="M362.085 166.413H344.694V172.877H362.085V166.413Z" fill="white"/>
<path opacity="0.4" d="M338.975 51.8646H276.562V178.734H338.975V51.8646Z" fill="white"/>
<path d="M333.536 60.4771H282.009V66.941H333.536V60.4771Z" fill="#A2A8AC"/>
<path opacity="0.2" d="M333.536 60.4771H284.011V66.941H333.536V60.4771Z" fill="white"/>
<path d="M333.536 71.3534H282.009V77.8173H333.536V71.3534Z" fill="#A2A8AC"/>
<path opacity="0.2" d="M333.536 71.3534H284.011V77.8173H333.536V71.3534Z" fill="white"/>
<path d="M333.536 82.6608H282.009V89.1247H333.536V82.6608Z" fill="#A2A8AC"/>
<path opacity="0.2" d="M333.536 82.6608H284.011V89.1247H333.536V82.6608Z" fill="white"/>
<path d="M333.536 93.9681H282.009V100.432H333.536V93.9681Z" fill="#A2A8AC"/>
<path opacity="0.2" d="M333.536 93.9681H284.011V100.432H333.536V93.9681Z" fill="white"/>
<path d="M333.536 105.269H282.009V111.733H333.536V105.269Z" fill="#A2A8AC"/>
<path opacity="0.2" d="M333.536 105.269H284.011V111.733H333.536V105.269Z" fill="white"/>
<path d="M333.536 116.577H282.009V123.041H333.536V116.577Z" fill="#A2A8AC"/>
<path opacity="0.2" d="M333.536 116.577H284.011V123.041H333.536V116.577Z" fill="white"/>
<path d="M333.536 129.037H282.009V135.501H333.536V129.037Z" fill="#A2A8AC"/>
<path opacity="0.2" d="M333.536 129.037H284.011V135.501H333.536V129.037Z" fill="white"/>
<path d="M333.536 141.498H282.009V147.962H333.536V141.498Z" fill="#A2A8AC"/>
<path opacity="0.2" d="M333.536 141.498H284.011V147.962H333.536V141.498Z" fill="white"/>
<path d="M333.536 153.952H282.009V160.416H333.536V153.952Z" fill="#A2A8AC"/>
<path opacity="0.2" d="M333.536 153.952H284.011V160.416H333.536V153.952Z" fill="white"/>
<path d="M333.536 166.413H282.009V172.877H333.536V166.413Z" fill="#A2A8AC"/>
<path opacity="0.2" d="M333.536 166.413H284.011V172.877H333.536V166.413Z" fill="white"/>
<path d="M360.75 48.0953H338.983V50.5838H360.75V48.0953Z" fill="#A2A8AC"/>
<path d="M360.75 47.4884H276.562V50.5838H360.75V47.4884Z" fill="#F0F0F0"/>
<path d="M363.706 50.59H274.8V53.6854H363.706V50.59Z" fill="#A2A8AC"/>
<path d="M363.706 45H274.8V48.0954H363.706V45Z" fill="#A2A8AC"/>
<path opacity="0.05" d="M363.706 50.59H274.8V53.6854H363.706V50.59Z" fill="black"/>
<path opacity="0.05" d="M363.706 45H274.8V48.0954H363.706V45Z" fill="black"/>
<path opacity="0.2" d="M276.562 104.535H223.413V105.458H276.562V104.535Z" fill="white"/>
<path opacity="0.2" d="M276.562 124.522H223.413V125.444H276.562V124.522Z" fill="white"/>
<path opacity="0.2" d="M276.562 144.678H223.413V145.601H276.562V144.678Z" fill="white"/>
<path opacity="0.2" d="M171.654 61.436H156.778V63.3479H171.654V61.436Z" fill="black"/>
<path opacity="0.2" d="M171.654 57.6062H156.778V59.5181H171.654V57.6062Z" fill="black"/>
<path opacity="0.2" d="M363.706 50.59H338.983V53.6854H363.706V50.59Z" fill="black"/>
<path opacity="0.2" d="M363.706 45H338.983V48.0954H363.706V45Z" fill="black"/>
<path opacity="0.4" d="M62.3313 135.331H27V178.734H83.3842V135.331V116.085L62.3313 135.331Z" fill="white"/>
<path d="M40.5025 144.132H32.1139V150.693H40.5025V144.132Z" fill="#A2A8AC"/>
<path d="M57.5743 144.132H49.1858V150.693H57.5743V144.132Z" fill="#A2A8AC"/>
<path d="M74.6464 144.132H66.2578V150.693H74.6464V144.132Z" fill="#A2A8AC"/>
<path d="M40.5025 155.172H32.1139V161.733H40.5025V155.172Z" fill="#A2A8AC"/>
<path d="M57.5743 155.172H49.1858V161.733H57.5743V155.172Z" fill="#A2A8AC"/>
<path d="M74.6464 155.172H66.2578V161.733H74.6464V155.172Z" fill="#A2A8AC"/>
<path d="M40.5025 166.213H32.1139V172.774H40.5025V166.213Z" fill="#A2A8AC"/>
<path d="M57.5743 166.213H49.1858V172.774H57.5743V166.213Z" fill="#A2A8AC"/>
<path d="M74.6464 166.213H66.2578V172.774H74.6464V166.213Z" fill="#A2A8AC"/>
<path opacity="0.2" d="M41.4336 144.132H33.045V150.693H41.4336V144.132Z" fill="white"/>
<path opacity="0.2" d="M58.4978 144.132H50.1093V150.693H58.4978V144.132Z" fill="white"/>
<path opacity="0.2" d="M75.5698 144.132H67.1813V150.693H75.5698V144.132Z" fill="white"/>
<path opacity="0.2" d="M41.4336 155.172H33.045V161.733H41.4336V155.172Z" fill="white"/>
<path opacity="0.2" d="M58.4978 155.172H50.1093V161.733H58.4978V155.172Z" fill="white"/>
<path opacity="0.2" d="M75.5698 155.172H67.1813V161.733H75.5698V155.172Z" fill="white"/>
<path opacity="0.2" d="M41.4336 166.213H33.045V172.774H41.4336V166.213Z" fill="white"/>
<path opacity="0.2" d="M58.4978 166.213H50.1093V172.774H58.4978V166.213Z" fill="white"/>
<path opacity="0.2" d="M75.5698 166.213H67.1813V172.774H75.5698V166.213Z" fill="white"/>
<path d="M192.127 185.327L187.269 201.386H203.573L201.92 185.327H192.127Z" fill="#A2A8AC"/>
<path d="M207.367 185.327L214.351 201.386H225.277L216.322 185.327H207.367Z" fill="#A2A8AC"/>
<path d="M222.468 185.327L236.84 201.386H249.24L230.562 185.327H222.468Z" fill="#A2A8AC"/>
<path d="M237.049 185.327L260.865 201.386H275.694L245.934 185.327H237.049Z" fill="#A2A8AC"/>
<path d="M186.043 185.327L179.059 201.386H168.133L177.088 185.327H186.043Z" fill="#A2A8AC"/>
<path d="M170.942 185.327L156.57 201.386H144.17L162.848 185.327H170.942Z" fill="#A2A8AC"/>
<path d="M156.361 185.327L132.545 201.386H117.716L147.476 185.327H156.361Z" fill="#A2A8AC"/>
<path opacity="0.4" d="M192.127 185.327L187.269 201.386H203.573L201.92 185.327H192.127Z" fill="white"/>
<path opacity="0.4" d="M207.367 185.327L214.351 201.386H225.277L216.322 185.327H207.367Z" fill="white"/>
<path opacity="0.4" d="M222.468 185.327L236.84 201.386H249.24L230.562 185.327H222.468Z" fill="white"/>
<path opacity="0.4" d="M237.049 185.327L260.865 201.386H275.694L245.934 185.327H237.049Z" fill="white"/>
<path opacity="0.4" d="M186.043 185.327L179.059 201.386H168.133L177.088 185.327H186.043Z" fill="white"/>
<path opacity="0.4" d="M170.942 185.327L156.57 201.386H144.17L162.848 185.327H170.942Z" fill="white"/>
<path opacity="0.4" d="M156.361 185.327L132.545 201.386H117.716L147.476 185.327H156.361Z" fill="white"/>
<path d="M80.8172 179.28C83.6728 179.214 86.476 178.761 89.0478 177.95C91.6196 177.138 93.9036 175.986 95.7539 174.568C97.6042 173.149 98.9802 171.494 99.7942 169.71C100.608 167.925 100.842 166.049 100.481 164.202C99.9689 161.568 98.2772 159.106 97.0821 156.567C94.824 151.769 94.1023 146.354 88.9186 142.637C87.3188 141.494 85.3707 140.581 83.1988 139.957C81.0269 139.332 78.6788 139.009 76.3047 139.009C73.9306 139.009 71.5826 139.332 69.4107 139.957C67.2387 140.581 65.2907 141.494 63.6908 142.637C60.3308 145.039 58.74 148.285 58.0493 151.506C57.3587 154.727 57.4518 157.988 57.025 161.209C56.637 163.894 55.8533 166.574 56.024 169.269C56.1947 171.964 57.4363 174.77 60.4705 176.605C62.0195 177.466 63.7494 178.177 65.6076 178.719C67.3965 179.368 69.3362 179.822 71.35 180.064C72.3591 180.18 73.3955 180.148 74.3827 179.968C75.3699 179.789 76.2826 179.467 77.0536 179.027C78.2825 179.23 79.5504 179.316 80.8172 179.28Z" fill="#A2A8AC"/>
<path opacity="0.7" d="M80.8172 179.28C83.6728 179.214 86.476 178.761 89.0478 177.95C91.6196 177.138 93.9036 175.986 95.7539 174.568C97.6042 173.149 98.9802 171.494 99.7942 169.71C100.608 167.925 100.842 166.049 100.481 164.202C99.9689 161.568 98.2772 159.106 97.0821 156.567C94.824 151.769 94.1023 146.354 88.9186 142.637C87.3188 141.494 85.3707 140.581 83.1988 139.957C81.0269 139.332 78.6788 139.009 76.3047 139.009C73.9306 139.009 71.5826 139.332 69.4107 139.957C67.2387 140.581 65.2907 141.494 63.6908 142.637C60.3308 145.039 58.74 148.285 58.0493 151.506C57.3587 154.727 57.4518 157.988 57.025 161.209C56.637 163.894 55.8533 166.574 56.024 169.269C56.1947 171.964 57.4363 174.77 60.4705 176.605C62.0195 177.466 63.7494 178.177 65.6076 178.719C67.3965 179.368 69.3362 179.822 71.35 180.064C72.3591 180.18 73.3955 180.148 74.3827 179.968C75.3699 179.789 76.2826 179.467 77.0536 179.027C78.2825 179.23 79.5504 179.316 80.8172 179.28Z" fill="white"/>
<path d="M71.3267 189.084V188.411L73.0416 187.466C73.0416 187.466 75.0903 173.814 75.4395 169.86C75.7887 165.906 76.2155 159.677 73.9806 155.156C75.9605 158.239 77.3698 161.464 78.1787 164.763C78.1787 164.763 80.8327 158.544 85.543 154.585C85.543 154.585 79.8006 164.141 80.5766 173.03C80.9635 178.082 81.9362 183.107 83.4866 188.063L84.5109 188.508L84.5963 189.069L71.3267 189.084Z" fill="#A2A8AC"/>
<path d="M76.5647 167.15C76.5647 167.15 75.0748 162.842 71.0629 160.708C71.0629 160.708 74.4229 163.742 75.5249 168.839C76.6268 173.936 77.7985 170.7 77.7985 170.7L76.5647 167.15Z" fill="#A2A8AC"/>
<path d="M74.8109 178.805C74.3331 177.748 73.2643 176.845 71.8156 176.277C71.8156 176.277 73.3676 177.247 74.0815 180.357C74.7954 183.467 76.5802 181.753 76.5802 181.753L76.7199 180.038L74.8109 178.805Z" fill="#A2A8AC"/>
<path opacity="0.2" d="M74.097 180.352C73.321 177.242 71.8311 176.272 71.8311 176.272C72.9348 176.716 73.8269 177.351 74.4074 178.107C74.873 174.795 75.3076 171.493 75.455 169.86C75.455 169.537 75.5093 169.193 75.5326 168.849C74.4307 163.732 71.0784 160.718 71.0784 160.718C73.4064 161.957 74.8885 163.934 75.7344 165.37C75.8042 162.003 75.5016 158.2 74.0116 155.167C75.9915 158.249 77.4009 161.474 78.2098 164.774C78.2098 164.774 80.8637 158.554 85.574 154.595C85.574 154.595 79.8316 164.152 80.6076 173.041C80.9945 178.092 81.9673 183.117 83.5176 188.073L84.542 188.518L84.6273 189.079H71.3267V188.407L73.0416 187.461C73.0416 187.461 73.5305 184.169 74.097 180.352Z" fill="black"/>
<path d="M309.396 181.444C306.172 181.369 303.008 180.857 300.104 179.94C297.201 179.024 294.623 177.723 292.534 176.121C290.445 174.52 288.892 172.652 287.972 170.637C287.053 168.622 286.788 166.505 287.194 164.42C287.776 161.447 289.685 158.666 291.036 155.824C293.589 150.404 294.403 144.291 300.254 140.099C302.059 138.808 304.257 137.776 306.708 137.07C309.16 136.365 311.81 136 314.49 136C317.17 136 319.821 136.365 322.272 137.07C324.723 137.776 326.922 138.808 328.726 140.099C332.521 142.804 334.321 146.475 335.105 150.105C335.888 153.736 335.764 157.422 336.284 161.077C336.719 164.111 337.603 167.145 337.417 170.179C337.231 173.212 335.819 176.388 332.396 178.466C330.636 179.441 328.671 180.246 326.561 180.858C324.54 181.591 322.349 182.103 320.074 182.374C318.934 182.506 317.763 182.469 316.648 182.266C315.533 182.063 314.502 181.699 313.633 181.201C312.246 181.416 310.819 181.498 309.396 181.444Z" fill="#A2A8AC"/>
<path opacity="0.7" d="M309.396 181.444C306.172 181.369 303.008 180.857 300.104 179.94C297.201 179.024 294.623 177.723 292.534 176.121C290.445 174.52 288.892 172.652 287.972 170.637C287.053 168.622 286.788 166.505 287.194 164.42C287.776 161.447 289.685 158.666 291.036 155.824C293.589 150.404 294.403 144.291 300.254 140.099C302.059 138.808 304.257 137.776 306.708 137.07C309.16 136.365 311.81 136 314.49 136C317.17 136 319.821 136.365 322.272 137.07C324.723 137.776 326.922 138.808 328.726 140.099C332.521 142.804 334.321 146.475 335.105 150.105C335.888 153.736 335.764 157.422 336.284 161.077C336.719 164.111 337.603 167.145 337.417 170.179C337.231 173.212 335.819 176.388 332.396 178.466C330.636 179.441 328.671 180.246 326.561 180.858C324.54 181.591 322.349 182.103 320.074 182.374C318.934 182.506 317.763 182.469 316.648 182.266C315.533 182.063 314.502 181.699 313.633 181.201C312.246 181.416 310.819 181.498 309.396 181.444Z" fill="white"/>
<path d="M320.089 192.507V191.754L318.157 190.682C318.157 190.682 315.829 175.255 315.449 170.811C315.068 166.366 314.579 159.313 317.094 154.211C314.86 157.694 313.273 161.338 312.368 165.067C312.368 165.067 309.372 158.049 304.057 153.574C304.057 153.574 310.536 164.364 309.667 174.401C309.224 180.099 308.125 185.768 306.377 191.359L305.221 191.865L305.12 192.492L320.089 192.507Z" fill="#A2A8AC"/>
<path d="M314.191 167.752C314.191 167.752 315.868 162.888 320.399 160.476C320.399 160.476 316.605 163.879 315.363 169.658C314.122 175.437 312.787 171.751 312.787 171.751L314.191 167.752Z" fill="#A2A8AC"/>
<path d="M316.209 180.908C316.747 179.712 317.954 178.69 319.592 178.046C319.592 178.046 317.862 179.143 317.039 182.653C316.217 186.162 314.207 184.21 314.207 184.21L314.059 182.278L316.209 180.908Z" fill="#A2A8AC"/>
<path opacity="0.2" d="M316.985 182.653C317.808 179.143 319.538 178.046 319.538 178.046C318.286 178.545 317.275 179.263 316.62 180.119C316.1 176.383 315.612 172.651 315.449 170.811C315.449 170.442 315.386 170.052 315.355 169.653C316.597 163.879 320.392 160.476 320.392 160.476C317.753 161.876 316.085 164.106 315.146 165.729C315.068 161.927 315.41 157.639 317.094 154.211C314.86 157.694 313.273 161.338 312.368 165.067C312.368 165.067 309.372 158.049 304.057 153.574C304.057 153.574 310.536 164.364 309.667 174.401C309.224 180.099 308.125 185.768 306.377 191.359L305.221 191.865L305.12 192.492H320.089V191.739L318.157 190.667C318.157 190.667 317.614 186.966 316.985 182.653Z" fill="black"/>
</svg>
